<svg width="28" height="28" viewBox="0 0 28 28" fill="none" xmlns="http://www.w3.org/2000/svg">
<path fill-rule="evenodd" clip-rule="evenodd" d="M13.8125 0C6.18407 0 0 6.18407 0 13.8125C0 21.4409 6.18407 27.625 13.8125 27.625C21.4409 27.625 27.625 21.4409 27.625 13.8125C27.625 6.18407 21.4409 0 13.8125 0ZM14.875 5.3125C14.875 4.7257 14.3993 4.25 13.8125 4.25C13.2257 4.25 12.75 4.7257 12.75 5.3125V13.8125C12.75 14.3993 13.2257 14.875 13.8125 14.875H20.1875C20.7743 14.875 21.25 14.3993 21.25 13.8125C21.25 13.2257 20.7743 12.75 20.1875 12.75H14.875V5.3125Z" fill="#5700FF"/>
</svg>
