<svg width="30" height="28" viewBox="0 0 30 28" fill="none" xmlns="http://www.w3.org/2000/svg">
<path d="M4.83519 0.578327C7.77424 0.196747 10.7709 0 13.8129 0C16.8546 0 19.851 0.196708 22.7897 0.578213C25.5129 0.931732 27.4526 3.21494 27.6141 5.85784C27.1525 5.7037 26.6634 5.60145 26.1517 5.55898C24.1846 5.39571 22.1954 5.3125 20.1874 5.3125C18.1796 5.3125 16.1904 5.39571 14.2233 5.55897C10.8824 5.83626 8.5 8.66245 8.5 11.8408V17.9119C8.5 20.307 9.85246 22.5004 11.9465 23.5561L8.1888 27.3138C7.88493 27.6177 7.42793 27.7086 7.0309 27.5441C6.63387 27.3797 6.375 26.9922 6.375 26.5625V20.8541C5.86003 20.7989 5.34674 20.7381 4.8352 20.6717C1.98994 20.3023 0 17.8263 0 15.0346V6.21546C0 3.42369 1.98993 0.947729 4.83519 0.578327Z" fill="#F5F3F0"/>
<path d="M20.1874 7.4375C18.2383 7.4375 16.3078 7.51827 14.3991 7.67669C12.2184 7.85768 10.625 9.70816 10.625 11.8408V17.9119C10.625 20.0478 12.223 21.8993 14.4064 22.0775C16.1685 22.2214 17.9492 22.3 19.746 22.3111L23.6862 26.2513C23.9901 26.5552 24.4471 26.6461 24.8441 26.4816C25.2411 26.3172 25.5 25.9297 25.5 25.5V22.1143C25.6563 22.1026 25.8125 22.0904 25.9685 22.0777C28.152 21.8995 29.75 20.0479 29.75 17.912V11.8408C29.75 9.70817 28.1566 7.85769 25.9759 7.6767C24.0672 7.51828 22.1366 7.4375 20.1874 7.4375Z" fill="#F5F3F0"/>
</svg>
