<svg width="26" height="28" viewBox="0 0 26 28" fill="none" xmlns="http://www.w3.org/2000/svg">
<path d="M21.7812 0C20.3142 0 19.125 1.18924 19.125 2.65625V24.9688C19.125 26.4358 20.3142 27.625 21.7812 27.625H22.8438C24.3108 27.625 25.5 26.4358 25.5 24.9688V2.65625C25.5 1.18924 24.3108 0 22.8438 0H21.7812Z" fill="#5700FF"/>
<path d="M9.5625 9.03125C9.5625 7.56424 10.7517 6.375 12.2188 6.375H13.2812C14.7483 6.375 15.9375 7.56424 15.9375 9.03125V24.9688C15.9375 26.4358 14.7483 27.625 13.2812 27.625H12.2188C10.7517 27.625 9.5625 26.4358 9.5625 24.9688V9.03125Z" fill="#5700FF"/>
<path d="M0 15.4062C0 13.9392 1.18924 12.75 2.65625 12.75H3.71875C5.18576 12.75 6.375 13.9392 6.375 15.4062V24.9688C6.375 26.4358 5.18576 27.625 3.71875 27.625H2.65625C1.18924 27.625 0 26.4358 0 24.9688V15.4062Z" fill="#5700FF"/>
</svg>
