<svg width="28" height="28" viewBox="0 0 28 28" fill="none" xmlns="http://www.w3.org/2000/svg">
<path fill-rule="evenodd" clip-rule="evenodd" d="M8.99992 2.19407C10.1675 0.851319 11.8905 0 13.8125 0C15.7344 0 17.4573 0.851235 18.6249 2.19387C20.4001 2.06984 22.2207 2.68622 23.5799 4.0454C24.9391 5.40456 25.5554 7.22512 25.4314 9.00035C26.7739 10.1679 27.625 11.8908 27.625 13.8125C27.625 15.7346 26.7736 17.4577 25.4307 18.6253C25.5544 20.4003 24.938 22.2204 23.5791 23.5794C22.2202 24.9383 20.4 25.5547 18.625 25.431C17.4575 26.7737 15.7344 27.625 13.8125 27.625C11.8907 27.625 10.1677 26.7738 9.00013 25.4312C7.22488 25.5552 5.40429 24.9388 4.04511 23.5797C2.68594 22.2205 2.06955 20.3999 2.19358 18.6247C0.851113 17.4571 0 15.7342 0 13.8125C0 11.8907 0.851199 10.1677 2.19378 9.00016C2.06989 7.22507 2.68629 5.40468 4.04535 4.04563C5.40441 2.68657 7.22481 2.07017 8.99992 2.19407ZM18.9271 11.2426C19.2682 10.7651 19.1576 10.1015 18.6801 9.76041C18.2026 9.41934 17.539 9.52993 17.1979 10.0074L12.6144 16.4243L10.3138 14.1237C9.89887 13.7088 9.22613 13.7088 8.8112 14.1237C8.39627 14.5386 8.39627 15.2114 8.8112 15.6263L11.9987 18.8138C12.2195 19.0346 12.5264 19.1471 12.8376 19.1214C13.1489 19.0956 13.4331 18.9342 13.6146 18.6801L18.9271 11.2426Z" fill="#5700FF"/>
</svg>
