<svg width="45" height="45" viewBox="0 0 45 45" fill="none" xmlns="http://www.w3.org/2000/svg">
<path d="M28.125 35.8642C29.6868 36.3188 31.3383 36.5625 33.0468 36.5625C35.8195 36.5625 38.4422 35.9205 40.7745 34.7772C40.7789 34.6697 40.7812 34.5617 40.7812 34.4531C40.7812 30.1815 37.3184 26.7188 33.0468 26.7188C30.388 26.7188 28.0425 28.0603 26.6504 30.1035M28.125 35.8642V35.8594C28.125 33.7727 27.5903 31.8109 26.6504 30.1035M28.125 35.8642C28.125 35.931 28.1244 35.9978 28.1233 36.0644C24.6325 38.1661 20.5434 39.375 16.1719 39.375C11.8004 39.375 7.7112 38.1661 4.22048 36.0644C4.21933 35.9962 4.21875 35.9278 4.21875 35.8594C4.21875 29.2578 9.57035 23.9062 16.1719 23.9062C20.6867 23.9062 24.6169 26.4094 26.6504 30.1035M22.5 11.9531C22.5 15.4481 19.6668 18.2812 16.1719 18.2812C12.6769 18.2812 9.84375 15.4481 9.84375 11.9531C9.84375 8.4582 12.6769 5.625 16.1719 5.625C19.6668 5.625 22.5 8.4582 22.5 11.9531ZM37.9688 16.1719C37.9688 18.8902 35.7652 21.0938 33.0469 21.0938C30.3286 21.0938 28.125 18.8902 28.125 16.1719C28.125 13.4536 30.3286 11.25 33.0469 11.25C35.7652 11.25 37.9688 13.4536 37.9688 16.1719Z" stroke="#FDFDFC" stroke-width="2" stroke-linecap="round" stroke-linejoin="round"/>
</svg>
