<svg width="45" height="45" viewBox="0 0 45 45" fill="none" xmlns="http://www.w3.org/2000/svg">
<path d="M11.25 12.8963V11.25C11.25 8.92005 13.1388 7.03125 15.4688 7.03125H29.5312C31.8612 7.03125 33.75 8.92005 33.75 11.25V12.8963M11.25 12.8963C11.6898 12.7408 12.1632 12.6562 12.6562 12.6562H32.3438C32.8368 12.6562 33.3102 12.7408 33.75 12.8963M11.25 12.8963C9.61145 13.4754 8.4375 15.0381 8.4375 16.875V18.5213M33.75 12.8963C35.3886 13.4754 36.5625 15.0381 36.5625 16.875V18.5213M36.5625 18.5213C36.1227 18.3658 35.6493 18.2812 35.1562 18.2812H9.84375C9.35067 18.2812 8.87735 18.3658 8.4375 18.5213M36.5625 18.5213C38.2011 19.1005 39.375 20.6631 39.375 22.5V33.75C39.375 36.08 37.4862 37.9688 35.1562 37.9688H9.84375C7.5138 37.9688 5.625 36.08 5.625 33.75V22.5C5.625 20.6631 6.79895 19.1005 8.4375 18.5213" stroke="#FDFDFC" stroke-width="2" stroke-linecap="round" stroke-linejoin="round"/>
</svg>
